<svg width="130" height="40" viewBox="0 0 130 40" fill="none" xmlns="http://www.w3.org/2000/svg">
<path d="M20.7752 11.2308C20.7752 5.49387 16.1245 0.84314 10.3875 0.84314C4.65059 0.84314 -0.00012207 5.49387 -0.00012207 11.2308V28.6594C-0.00012207 34.3964 4.65059 39.0471 10.3875 39.0471C16.1245 39.0471 20.7752 34.3964 20.7752 28.6594V11.2308Z" fill="#2EBAAB"/>
<path d="M14.5424 21.3693C14.5424 19.0745 12.6822 17.2142 10.3874 17.2142C8.09259 17.2142 6.2323 19.0745 6.2323 21.3693V28.75C6.2323 31.0448 8.09259 32.9051 10.3874 32.9051C12.6822 32.9051 14.5424 31.0448 14.5424 28.75V21.3693Z" fill="white"/>
<path d="M11.4725 6.98181H9.30226C7.60677 6.98181 6.2323 8.35628 6.2323 10.0518C6.2323 11.7473 7.60677 13.1217 9.30226 13.1217H11.4725C13.168 13.1217 14.5424 11.7473 14.5424 10.0518C14.5424 8.35628 13.168 6.98181 11.4725 6.98181Z" fill="white"/>
<path d="M40.3214 31V8.50807H45.2983V31H40.3214ZM68.2336 8.50807H72.094V31H67.7232V17.6644L62.5548 27.2992H59.3645L54.1961 17.792V31H49.8254V8.50807H53.7495L60.9916 22.2585L68.2336 8.50807ZM76.6178 31V8.50807H81.5947V31H76.6178ZM100.925 8.50807H105.583V31H101.882L90.684 16.6754V31H86.058V8.50807H89.7268L100.925 22.7689V8.50807ZM124.915 8.50807H129.573V31H125.872L114.674 16.6754V31H110.048V8.50807H113.717L124.915 22.7689V8.50807Z" fill="#222222"/>
</svg>
